<?xml version="1.0" encoding="UTF-8" standalone="no"?>
<!DOCTYPE svg PUBLIC "-//W3C//DTD SVG 1.1//EN" "http://www.w3.org/Graphics/SVG/1.1/DTD/svg11.dtd">
<svg version="1.1" xmlns="http://www.w3.org/2000/svg" xmlns:xlink="http://www.w3.org/1999/xlink" preserveAspectRatio="xMidYMid meet" viewBox="361.6191901004677 288.5 34.5 34.5" width="30" height="30"><defs><path d="M393.12 305C393.12 313.28 386.4 320 378.12 320C369.84 320 363.12 313.28 363.12 305C363.12 296.72 369.84 290 378.12 290C386.4 290 393.12 296.72 393.12 305Z" id="aYsCACaNH"></path><path d="M392.12 305C392.12 312.73 385.85 319 378.12 319C370.39 319 364.12 312.73 364.12 305C364.12 297.27 370.39 291 378.12 291C385.85 291 392.12 297.27 392.12 305Z" id="bkw5Pl6fp"></path><path d="M384.15 310.06L372.08 299.94" id="d34PB2mHvX"></path><path d="M384.15 299.94L372.08 310.06" id="jqgOFEGWl"></path></defs><g><g><use xlink:href="#aYsCACaNH" opacity="1" fill="#7d0001" fill-opacity="1"></use></g><g><use xlink:href="#bkw5Pl6fp" opacity="1" fill="#353232" fill-opacity="1"></use></g><g><g><use xlink:href="#d34PB2mHvX" opacity="1" fill-opacity="0" stroke="#ff0000" stroke-width="3" stroke-opacity="1"></use></g></g><g><g><use xlink:href="#jqgOFEGWl" opacity="1" fill-opacity="0" stroke="#ff0000" stroke-width="3" stroke-opacity="1"></use></g></g></g></svg>